<?xml version="1.0" standalone="no"?>
<!DOCTYPE svg PUBLIC "-//W3C//DTD SVG 20010904//EN"
 "http://www.w3.org/TR/2001/REC-SVG-20010904/DTD/svg10.dtd">
<svg version="1.0" xmlns="http://www.w3.org/2000/svg"
 width="512.000000pt" height="512.000000pt" viewBox="0 0 512.000000 512.000000"
 preserveAspectRatio="xMidYMid meet">

<g transform="translate(0.000000,512.000000) scale(0.100000,-0.100000)"
fill="#000000" stroke="none">
<path d="M205 5102 c-65 -22 -109 -55 -146 -105 -61 -85 -59 -33 -59 -1269 0
-1227 -3 -1170 55 -1196 51 -23 107 -7 131 39 12 24 14 160 14 864 l0 835
1660 0 1660 0 0 -725 0 -725 -816 0 -816 0 -34 -34 -34 -34 0 -221 0 -221 -91
0 c-88 0 -92 -1 -121 -30 -27 -27 -30 -36 -25 -71 10 -73 56 -99 175 -99 l62
0 0 -255 0 -255 -752 0 c-471 0 -766 4 -789 10 -61 17 -73 39 -79 148 -7 113
-12 128 -51 147 -52 27 -110 11 -135 -36 -20 -40 -19 -193 3 -259 22 -69 96
-150 165 -181 l53 -24 793 -3 792 -3 0 -189 c0 -125 4 -198 12 -215 26 -57 -2
-55 871 -55 l803 0 98 -367 c54 -202 103 -378 109 -391 12 -26 55 -52 87 -52
26 0 76 25 83 42 30 73 159 364 163 367 2 3 127 -117 277 -267 292 -291 292
-291 355 -258 46 24 430 418 437 449 4 15 4 39 0 55 -4 17 -101 122 -271 293
l-265 266 158 68 c210 90 227 99 241 130 16 34 15 60 -3 94 -18 36 -15 34
-220 90 l-170 46 -5 628 -5 629 -33 29 -32 29 -395 0 -395 0 -2 1038 c-3 1030
-3 1037 -24 1083 -31 66 -78 114 -142 146 l-57 28 -1620 2 c-1518 2 -1623 1
-1670 -15z m3277 -211 l33 -29 3 -191 3 -191 -1660 0 -1661 0 0 186 0 186 34
34 34 34 1591 0 1591 0 32 -29z m457 -3422 c548 -147 622 -167 627 -172 2 -2
-50 -27 -115 -56 -130 -57 -151 -76 -151 -138 0 -35 13 -51 287 -325 l288
-288 -123 -122 -122 -123 -288 288 c-274 274 -290 287 -325 287 -62 0 -81 -21
-138 -152 -41 -93 -55 -116 -61 -102 -6 15 -238 874 -263 977 -4 15 -4 27 0
27 4 0 177 -45 384 -101z"/>
<path d="M408 4785 c-87 -49 -50 -185 49 -185 64 1 110 54 99 114 -12 66 -91
103 -148 71z"/>
<path d="M825 4789 c-35 -20 -55 -53 -55 -92 0 -101 139 -136 185 -47 22 43
18 76 -12 110 -31 34 -86 48 -118 29z"/>
<path d="M1214 4766 c-45 -45 -47 -95 -5 -137 63 -62 171 -20 171 66 0 50 -53
105 -100 105 -23 0 -41 -9 -66 -34z"/>
<path d="M1794 4766 c-45 -45 -47 -95 -5 -137 l29 -29 732 0 732 0 29 29 c31
31 39 83 19 122 -27 50 -17 49 -786 49 l-716 0 -34 -34z"/>
<path d="M879 3961 c-54 -55 -29 -139 49 -161 20 -5 64 -10 97 -10 124 0 182
39 172 115 -4 26 -15 48 -32 62 -24 21 -36 23 -141 23 -114 0 -116 0 -145 -29z"/>
<path d="M1429 3961 c-54 -55 -29 -139 49 -161 20 -5 64 -10 97 -10 124 0 182
39 172 115 -4 26 -15 48 -32 62 -24 21 -36 23 -141 23 -114 0 -116 0 -145 -29z"/>
<path d="M1979 3961 c-54 -55 -29 -139 49 -161 20 -5 64 -10 97 -10 124 0 182
39 172 115 -4 26 -15 48 -32 62 -24 21 -36 23 -141 23 -114 0 -116 0 -145 -29z"/>
<path d="M2529 3961 c-54 -55 -29 -139 49 -161 20 -5 64 -10 97 -10 124 0 182
39 172 115 -4 26 -15 48 -32 62 -24 21 -36 23 -141 23 -114 0 -116 0 -145 -29z"/>
<path d="M3069 3951 c-29 -29 -29 -31 -29 -141 0 -110 0 -112 29 -141 39 -38
97 -40 138 -5 28 24 28 25 28 146 0 121 0 122 -28 146 -41 35 -99 33 -138 -5z"/>
<path d="M508 3930 l-30 -30 4 -116 c3 -113 4 -116 31 -140 41 -35 99 -33 138
5 29 29 29 31 29 141 0 110 0 112 -29 141 -42 41 -101 41 -143 -1z"/>
<path d="M3069 3401 c-29 -29 -29 -31 -29 -141 0 -110 0 -112 29 -141 39 -38
97 -40 138 -5 28 24 28 25 28 146 0 121 0 122 -28 146 -41 35 -99 33 -138 -5z"/>
<path d="M508 3380 l-30 -30 4 -116 c3 -113 4 -116 31 -140 41 -35 99 -33 138
5 29 29 29 31 29 141 0 110 0 112 -29 141 -42 41 -101 41 -143 -1z"/>
<path d="M508 2830 l-30 -30 4 -116 c3 -113 4 -116 31 -140 41 -35 99 -33 138
5 29 29 29 31 29 141 0 110 0 112 -29 141 -42 41 -101 41 -143 -1z"/>
<path d="M33 2286 c-23 -20 -28 -32 -28 -71 0 -60 35 -95 95 -95 60 0 95 35
95 95 0 60 -35 95 -95 95 -27 0 -48 -8 -67 -24z"/>
<path d="M508 2280 c-27 -27 -30 -36 -25 -71 10 -72 56 -99 172 -99 116 0 162
27 172 99 5 35 2 44 -25 71 l-30 30 -117 0 -117 0 -30 -30z"/>
<path d="M1058 2280 c-27 -27 -30 -36 -25 -71 10 -72 56 -99 172 -99 116 0
162 27 172 99 5 35 2 44 -25 71 l-30 30 -117 0 -117 0 -30 -30z"/>
</g>
</svg>
