<?xml version="1.0" standalone="no"?>
<!DOCTYPE svg PUBLIC "-//W3C//DTD SVG 20010904//EN"
 "http://www.w3.org/TR/2001/REC-SVG-20010904/DTD/svg10.dtd">
<svg version="1.0" xmlns="http://www.w3.org/2000/svg"
 width="980.000000pt" height="980.000000pt" viewBox="0 0 980.000000 980.000000"
 preserveAspectRatio="xMidYMid meet">

<g transform="translate(0.000000,980.000000) scale(0.100000,-0.100000)"
fill="#000000" stroke="none">
<path d="M5590 8654 c-343 -31 -666 -154 -923 -351 -244 -188 -454 -469 -560
-753 -18 -48 -30 -66 -46 -68 -11 -2 -61 13 -110 32 -316 125 -686 97 -987
-75 -63 -36 -76 -48 -90 -85 -28 -73 10 -139 89 -158 23 -5 53 5 150 54 167
82 255 104 427 103 151 0 232 -17 362 -74 131 -58 241 -48 330 30 44 39 51 53
128 233 23 53 72 143 109 200 220 339 544 560 948 650 142 32 445 32 585 1
329 -74 607 -234 815 -472 139 -159 246 -348 308 -544 62 -198 104 -240 278
-283 212 -53 367 -171 459 -349 66 -129 82 -209 73 -348 -17 -261 -17 -263
156 -437 135 -137 196 -226 254 -370 42 -107 70 -135 134 -135 57 0 93 26 112
82 9 27 7 44 -11 97 -55 167 -176 352 -327 500 l-95 93 12 98 c36 282 -66 563
-277 766 -82 79 -140 119 -236 164 -63 30 -172 65 -247 79 -23 5 -30 19 -64
123 -128 393 -376 715 -723 936 -191 122 -444 215 -669 247 -84 11 -300 20
-364 14z"/>
<path d="M5527 8095 c-43 -7 -119 -26 -168 -41 -71 -22 -96 -35 -119 -61 -49
-56 -34 -145 30 -178 40 -21 65 -19 146 9 110 39 192 49 338 43 248 -10 413
-81 598 -255 54 -50 97 -82 117 -87 46 -10 101 20 125 68 30 62 17 96 -69 181
-161 160 -351 262 -580 312 -97 22 -320 27 -418 9z"/>
<path d="M2613 7101 c-38 -24 -93 -120 -139 -241 -29 -76 -49 -167 -69 -302
-7 -43 -1 -41 -150 -62 -259 -38 -502 -165 -705 -370 -207 -207 -335 -451
-385 -729 -26 -146 -17 -384 20 -526 109 -421 413 -755 829 -912 189 -71 256
-82 551 -88 l260 -6 5 -428 5 -429 33 -29 c46 -41 108 -41 154 0 l33 29 5 474
5 473 27 51 c15 28 48 70 73 92 89 78 -49 73 1755 70 l1615 -3 54 -30 c29 -16
68 -47 87 -68 68 -80 64 -7 64 -1296 l0 -1166 -29 -60 c-30 -64 -67 -102 -135
-138 -36 -19 -62 -22 -223 -27 l-183 -5 -31 -31 c-60 -61 -42 -157 36 -190 47
-19 286 -19 380 1 202 43 363 198 410 396 13 55 15 226 15 1228 0 1281 3 1216
-62 1345 -44 88 -145 185 -236 227 l-72 34 0 261 c0 283 -10 417 -41 563 -121
556 -515 1018 -1052 1231 -315 124 -716 145 -1056 55 -651 -174 -1146 -729
-1245 -1397 -21 -140 -21 -359 -1 -398 28 -55 98 -75 155 -45 47 25 57 56 63
215 10 242 52 418 147 615 206 427 600 726 1070 812 130 23 371 23 505 -1 285
-51 546 -184 757 -385 234 -222 384 -502 438 -817 17 -97 20 -162 20 -400 l0
-284 -1171 0 -1170 0 3 303 c5 340 7 357 82 512 85 178 225 319 401 406 151
73 201 84 395 84 159 0 169 -2 260 -32 230 -78 411 -235 519 -450 59 -117 81
-212 90 -381 l7 -142 32 -33 c62 -62 161 -36 192 51 20 58 0 294 -36 418 -86
297 -285 544 -555 687 -72 39 -213 89 -304 108 -81 18 -332 18 -420 0 -396
-78 -725 -367 -848 -746 -47 -143 -57 -234 -57 -520 l0 -263 -267 -4 c-249 -4
-273 -5 -333 -27 -125 -44 -229 -130 -291 -238 l-24 -43 -186 0 c-227 0 -363
13 -489 46 -177 46 -376 161 -509 295 -263 264 -368 648 -275 1005 88 339 363
647 687 769 85 32 140 44 243 55 102 11 173 41 220 92 46 51 64 96 75 183 15
124 40 208 95 322 69 144 69 187 -2 234 -37 24 -80 24 -121 0z"/>
<path d="M8460 5153 c-26 -24 -33 -40 -46 -118 -41 -240 -139 -428 -311 -598
-197 -194 -425 -300 -707 -328 -153 -15 -186 -38 -186 -130 0 -34 7 -48 36
-77 l35 -35 112 6 c246 15 483 96 697 240 157 106 326 294 419 469 78 143 141
356 141 474 0 50 -3 59 -34 90 -29 29 -41 34 -80 34 -36 0 -52 -6 -76 -27z"/>
<path d="M4762 3590 c-106 -28 -167 -65 -255 -151 -114 -113 -167 -239 -167
-397 0 -115 37 -229 104 -315 l37 -48 -61 -197 c-34 -108 -64 -222 -67 -253
-8 -79 18 -150 73 -205 80 -80 72 -79 479 -79 350 0 361 1 400 22 98 52 165
171 151 266 -4 23 -35 130 -69 237 l-63 195 42 62 c143 212 132 473 -28 681
-51 66 -168 145 -256 172 -98 31 -228 35 -320 10z m286 -249 c108 -55 171
-151 180 -271 6 -89 -13 -149 -80 -245 -74 -106 -73 -136 11 -407 35 -113 61
-213 58 -222 -6 -14 -41 -16 -310 -16 -232 0 -307 3 -315 13 -7 8 7 68 49 202
33 105 63 211 69 237 13 63 -6 131 -53 196 -60 80 -79 135 -79 218 0 142 83
259 221 311 56 21 195 12 249 -16z"/>
<path d="M2893 2675 c-64 -27 -63 -21 -63 -577 0 -555 1 -566 62 -681 59 -110
169 -202 299 -249 l64 -23 1253 -3 c1150 -2 1256 -1 1288 14 59 28 81 102 49
164 -33 64 47 60 -1303 60 -1061 0 -1235 2 -1279 15 -63 19 -135 81 -171 149
l-27 51 -5 510 c-5 559 -3 540 -66 570 -39 18 -59 18 -101 0z"/>
</g>
</svg>
