<?xml version="1.0" standalone="no"?>
<!DOCTYPE svg PUBLIC "-//W3C//DTD SVG 20010904//EN"
 "http://www.w3.org/TR/2001/REC-SVG-20010904/DTD/svg10.dtd">
<svg version="1.0" xmlns="http://www.w3.org/2000/svg"
 width="200.000000pt" height="200.000000pt" viewBox="0 0 200.000000 200.000000"
 preserveAspectRatio="xMidYMid meet">

<g transform="translate(0.000000,200.000000) scale(0.100000,-0.100000)"
fill="#000000" stroke="none">
<path d="M412 1644 c-22 -15 -22 -19 -22 -233 0 -155 3 -220 12 -229 8 -8 48
-12 115 -12 l103 0 -25 -50 c-22 -43 -29 -50 -56 -50 -17 0 -28 -4 -24 -10 8
-13 325 -14 325 -1 0 5 -12 11 -27 13 -20 2 -34 14 -50 43 -13 22 -23 43 -23
48 0 4 44 7 98 7 139 0 132 -13 132 243 0 194 -1 208 -20 227 -19 19 -33 20
-268 20 -208 0 -251 -2 -270 -16z m526 -26 c15 -15 17 -380 2 -409 -10 -18
-24 -19 -258 -19 -180 0 -251 3 -260 12 -13 13 -18 409 -5 421 12 13 508 8
521 -5z m-205 -493 c9 -20 17 -38 17 -40 0 -3 -31 -5 -70 -5 -38 0 -70 2 -70
5 0 2 8 20 17 40 15 31 21 35 53 35 32 0 38 -4 53 -35z"/>
<path d="M432 1448 l3 -163 243 -3 242 -2 0 165 0 165 -245 0 -245 0 2 -162z
m468 2 l0 -140 -220 0 -220 0 0 140 0 140 220 0 220 0 0 -140z"/>
<path d="M667 1234 c-8 -8 1 -24 14 -24 5 0 9 7 9 15 0 15 -12 20 -23 9z"/>
<path d="M1000 1320 c0 -6 84 -11 218 -12 l217 -3 3 -120 3 -119 -24 22 c-13
12 -26 22 -30 22 -17 0 -4 -29 28 -60 l35 -34 34 40 c20 21 35 42 36 47 0 13
-13 8 -37 -15 l-23 -21 0 131 0 132 -230 0 c-144 0 -230 -4 -230 -10z"/>
<path d="M505 920 c-41 -42 -42 -69 0 -30 l25 23 0 -131 0 -132 230 0 c147 0
230 4 230 10 0 6 -78 10 -215 10 l-215 0 0 117 c0 112 1 115 18 100 20 -18 42
-23 42 -9 0 4 -17 25 -38 45 l-38 37 -39 -40z"/>
<path d="M1047 932 c-15 -16 -17 -47 -17 -229 0 -256 -7 -243 133 -243 53 0
97 -2 97 -5 0 -3 -9 -24 -20 -45 -17 -33 -26 -40 -50 -40 -20 0 -30 -5 -30
-15 0 -13 22 -15 163 -13 99 2 162 7 162 13 0 6 -14 11 -31 13 -25 2 -34 11
-52 48 l-22 44 99 0 c77 0 103 4 115 16 14 13 16 48 16 228 0 194 -2 214 -18
229 -16 15 -50 17 -274 17 -234 0 -256 -1 -271 -18z m524 -12 c18 -10 19 -23
19 -215 0 -185 -2 -205 -18 -214 -9 -5 -124 -9 -255 -9 -197 0 -240 2 -252 15
-23 22 -22 395 1 417 13 14 50 16 250 16 143 0 243 -4 255 -10z m-193 -507
l23 -43 -75 0 c-42 0 -76 2 -76 5 0 3 9 24 21 46 18 36 24 40 52 37 26 -2 36
-11 55 -45z"/>
<path d="M1080 740 l0 -160 245 0 245 0 0 160 0 160 -245 0 -245 0 0 -160z
m460 0 l0 -140 -220 0 -220 0 0 140 0 140 220 0 220 0 0 -140z"/>
<path d="M1310 514 c0 -17 22 -14 28 4 2 7 -3 12 -12 12 -9 0 -16 -7 -16 -16z"/>
</g>
</svg>
